<svg width="500" height="450" viewBox="0 0 500 450" fill="none" xmlns="http://www.w3.org/2000/svg">
<rect x="70" y="78" width="430" height="294" fill="#FA0000"/>
<path d="M77.2148 120.2H88.2148V147H113.715V120.2H124.715V182H113.715V157.2H88.2148V182H77.2148V120.2ZM134.838 181.2C137.572 170.933 140.672 160.333 144.138 149.4C147.605 138.467 151.005 128.733 154.338 120.2H171.538C174.872 128.733 178.272 138.467 181.738 149.4C185.205 160.333 188.305 170.933 191.038 181.2L179.438 182L177.638 174.9C176.305 169.7 175.272 165.8 174.538 163.2H151.238C149.238 170.467 147.638 176.733 146.438 182L134.838 181.2ZM171.838 153.5C168.638 142.833 166.205 135.133 164.538 130.4H161.438C159.172 136.733 156.705 144.433 154.038 153.5H171.838ZM227.241 182.9C217.907 182.9 210.874 180.4 206.141 175.4C201.474 170.333 199.141 162.867 199.141 153C199.141 142.733 201.441 134.533 206.041 128.4C210.641 122.267 217.441 119.2 226.441 119.2C230.507 119.2 234.341 119.633 237.941 120.5C241.541 121.3 244.407 122.333 246.541 123.6V128.6C246.541 130.2 246.407 131.867 246.141 133.6C245.941 135.333 245.641 136.8 245.241 138H236.841L235.841 130.3C233.374 129.7 230.041 129.4 225.841 129.4C222.107 129.4 218.274 129.833 214.341 130.7C211.541 136.7 210.141 143.933 210.141 152.4C210.141 159.6 211.474 164.8 214.141 168C216.874 171.133 221.407 172.7 227.741 172.7C231.141 172.7 234.307 172.3 237.241 171.5C240.241 170.7 242.741 169.6 244.741 168.2L249.341 176.7C246.807 178.7 243.674 180.233 239.941 181.3C236.207 182.367 231.974 182.9 227.241 182.9Z" fill="#FFC700"/>
<path d="M304.125 182.7C301.858 182.7 300.025 182.3 298.625 181.5C297.225 180.633 296.092 179.3 295.225 177.5L288.325 162.1C287.258 159.633 285.992 157.9 284.525 156.9C283.125 155.833 280.958 155.3 278.025 155.3H271.225V182H260.225V120.2H271.225V145.3H277.425C280.492 145.3 282.792 144.767 284.325 143.7C285.925 142.633 287.192 141.033 288.125 138.9L296.225 119.6L306.825 123.3L299.125 140.7C297.925 143.3 296.658 145.267 295.325 146.6C293.992 147.933 291.992 149.033 289.325 149.9V150.5C291.725 151.233 293.492 152.167 294.625 153.3C295.758 154.367 296.958 156.067 298.225 158.4L306.725 174.7L311.525 175.6V181.8C309.258 182.4 306.792 182.7 304.125 182.7ZM344.753 182.9C337.353 182.9 331.62 182.067 327.553 180.4C323.553 178.733 321.553 175.8 321.553 171.6V120.2H363.653V130.3H332.453V146.5H359.853V156.1H332.453V171.9C336.453 172.567 340.653 172.9 345.053 172.9C351.653 172.9 357.486 172.267 362.553 171L364.453 180.7C359.453 182.167 352.886 182.9 344.753 182.9ZM419.922 182.7C417.589 182.7 415.755 182.3 414.422 181.5C413.089 180.7 412.022 179.4 411.222 177.6L405.622 165.7C404.755 163.833 403.989 162.433 403.322 161.5C402.655 160.567 401.689 159.8 400.422 159.2C399.155 158.6 397.455 158.3 395.322 158.3H388.022V182H377.022V122C383.222 120.133 389.489 119.2 395.822 119.2C403.755 119.2 409.755 120.7 413.822 123.7C417.889 126.7 419.922 131.367 419.922 137.7C419.922 145.767 416.222 151.567 408.822 155.1V156C410.489 156.667 411.889 157.5 413.022 158.5C414.155 159.5 415.189 160.833 416.122 162.5L422.622 174.7L427.222 175.6V181.8C425.355 182.4 422.922 182.7 419.922 182.7ZM403.622 148.9C405.422 147.833 406.755 146.5 407.622 144.9C408.555 143.233 409.022 141.133 409.022 138.6C409.022 135.067 407.955 132.6 405.822 131.2C403.755 129.733 400.389 129 395.722 129C392.655 129 390.089 129.233 388.022 129.7V148.9H403.622Z" fill="white"/>
<path d="M136.459 342H183.559V350H136.459V342Z" fill="#5E17EB"/>
<path d="M222.26 342.9C212.927 342.9 205.893 340.4 201.16 335.4C196.493 330.333 194.16 322.867 194.16 313C194.16 302.733 196.46 294.533 201.06 288.4C205.66 282.267 212.46 279.2 221.46 279.2C225.527 279.2 229.36 279.633 232.96 280.5C236.56 281.3 239.427 282.333 241.56 283.6V288.6C241.56 290.2 241.427 291.867 241.16 293.6C240.96 295.333 240.66 296.8 240.26 298H231.86L230.86 290.3C228.393 289.7 225.06 289.4 220.86 289.4C217.127 289.4 213.293 289.833 209.36 290.7C206.56 296.7 205.16 303.933 205.16 312.4C205.16 319.6 206.493 324.8 209.16 328C211.893 331.133 216.427 332.7 222.76 332.7C226.16 332.7 229.327 332.3 232.26 331.5C235.26 330.7 237.76 329.6 239.76 328.2L244.36 336.7C241.827 338.7 238.693 340.233 234.96 341.3C231.227 342.367 226.993 342.9 222.26 342.9ZM255.145 280.2H266.145V307H291.645V280.2H302.645V342H291.645V317.2H266.145V342H255.145V280.2ZM312.768 341.2C315.501 330.933 318.601 320.333 322.068 309.4C325.535 298.467 328.935 288.733 332.268 280.2H349.468C352.801 288.733 356.201 298.467 359.668 309.4C363.135 320.333 366.235 330.933 368.968 341.2L357.368 342L355.568 334.9C354.235 329.7 353.201 325.8 352.468 323.2H329.168C327.168 330.467 325.568 336.733 324.368 342L312.768 341.2ZM349.768 313.5C346.568 302.833 344.135 295.133 342.468 290.4H339.368C337.101 296.733 334.635 304.433 331.968 313.5H349.768ZM395.07 290.4H375.27V280.2H425.87V290.4H406.07V342H395.07V290.4Z" fill="#00D6F4"/>
<rect x="70" width="83" height="78" fill="#FA0000"/>
<rect x="231" width="269" height="78" fill="#FA0000"/>
<rect y="372" width="430" height="78" fill="#FA0000"/>
<rect y="78" width="70" height="226" fill="#FA0000"/>
</svg>
